<svg xmlns="http://www.w3.org/2000/svg" style="display: none;">\

<symbol id="space_invader" viewBox="0 0 512 512"><title>space_invader</title><path d="M503.467,247.491h-34.133v-34.133c-0.014-4.707-3.826-8.52-8.533-8.533h-34.133v-38.827c0,0-8.533-8.533-13.227-12.373
h-37.973v-25.6h37.973c4.779,1.536,13.227-6.997,13.227-6.997V76.056c0,0-8.448-8.533-13.227-7.765h-44.971
c-4.811-0.246-9.085,3.049-10.069,7.765v34.901h-34.133c-4.707,0.014-8.52,3.826-8.533,8.533v34.133H196.267v-34.133 c-0.014-4.707-3.826-8.52-8.533-8.533H153.6V76.824c-0.014-4.707-3.826-8.52-8.533-8.533h-42.984
c-2.165-0.023-4.251,0.818-5.793,2.338c-1.542,1.52-2.415,3.593-2.423,5.758v44.64c0,0-0.085,8.533,4.693,6.997h37.973v34.133 H93.867c-4.707,0.014-8.52,3.826-8.533,8.533v34.133H51.2c-4.707,0.014-8.52,3.826-8.533,8.533v34.133H8.533
c-4.707,0.014-8.52,3.826-8.533,8.533v136.533c0.014,4.707,3.826,8.52,8.533,8.533h43.395c2.18-0.108,4.228-1.078,5.692-2.697 s2.224-3.753,2.113-5.933V264.558h25.6v128c0.014,4.707,3.826,8.52,8.533,8.533h42.667v34.133c0.014,4.707,3.826,8.52,8.533,8.533
h93.867c4.713,0,8.533-3.82,8.533-8.533v-42.667c0-4.713-3.82-8.533-8.533-8.533H153.6v-25.6h204.8v25.6h-85.333 c-4.713,0-8.533,3.82-8.533,8.533v42.667c0,4.713,3.821,8.533,8.533,8.533h93.867c4.707-0.014,8.52-3.826,8.533-8.533v-34.133 h42.667c4.707-0.014,8.52-3.826,8.533-8.533v-128h25.6v127.914c-0.06,2.234,0.774,4.4,2.316,6.018
c1.542,1.618,3.666,2.554,5.9,2.601h42.984c4.707-0.014,8.52-3.826,8.533-8.533V256.024
C511.986,251.317,508.174,247.505,503.467,247.491z M196.267,256.024c-0.014,4.707-3.826,8.52-8.533,8.533h-42.667 c-4.707-0.014-8.52-3.826-8.533-8.533v-42.667c0.014-4.707,3.826-8.52,8.533-8.533h42.667c4.707,0.014,8.52,3.826,8.533,8.533 V256.024z M375.467,256.024c-0.014,4.707-3.826,8.52-8.533,8.533h-42.667c-4.707-0.014-8.52-3.826-8.533-8.533v-42.667
c0.014-4.707,3.826-8.52,8.533-8.533h42.667c4.707,0.014,8.52,3.826,8.533,8.533V256.024z"/></symbol>






<symbol id="random"  viewBox="-12 -12 394.66666 394.66666"><title>random</title><path d="m61.25 370h247.5c33.8125-.039062 61.210938-27.4375 61.25-61.25v-247.5c-.039062-33.8125-27.4375-61.2109375-61.25-61.25h-247.5c-33.8125.0390625-61.2109375 27.4375-61.25 61.25v247.5c.0390625 33.8125 27.4375 61.210938 61.25 61.25zm-38.75-308.75c.023438-21.390625 17.359375-38.726562 38.75-38.75h247.5c21.390625.023438 38.726562 17.359375 38.75 38.75v247.5c-.023438 21.390625-17.359375 38.726562-38.75 38.75h-247.5c-21.390625-.023438-38.726562-17.359375-38.75-38.75zm0 0"/><path d="m185 223.398438c21.207031 0 38.398438-17.191407 38.398438-38.398438s-17.191407-38.398438-38.398438-38.398438-38.398438 17.191407-38.398438 38.398438c.023438 21.195312 17.203126 38.375 38.398438 38.398438zm0-54.296876c8.78125 0 15.898438 7.117188 15.898438 15.898438s-7.117188 15.898438-15.898438 15.898438-15.898438-7.117188-15.898438-15.898438c.007813-8.773438 7.125-15.890625 15.898438-15.898438zm0 0"/><path d="m103.554688 141.953125c21.207031 0 38.398437-17.191406 38.398437-38.398437 0-21.210938-17.191406-38.398438-38.398437-38.398438-21.207032 0-38.398438 17.191406-38.398438 38.398438.023438 21.195312 17.203125 38.375 38.398438 38.398437zm0-54.296875c8.78125 0 15.898437 7.117188 15.898437 15.898438s-7.117187 15.898437-15.898437 15.898437-15.898438-7.117187-15.898438-15.898437c.007812-8.773438 7.125-15.890626 15.898438-15.898438zm0 0"/><path d="m266.445312 141.953125c21.207032 0 38.398438-17.191406 38.398438-38.398437 0-21.207032-17.191406-38.398438-38.398438-38.398438-21.207031 0-38.398437 17.191406-38.398437 38.398438.023437 21.195312 17.203125 38.375 38.398437 38.398437zm0-54.296875c8.78125 0 15.898438 7.117188 15.898438 15.898438s-7.113281 15.898437-15.898438 15.898437c-8.78125 0-15.898437-7.117187-15.898437-15.898437.007813-8.773438 7.125-15.890626 15.898437-15.898438zm0 0"/><path d="m103.554688 304.84375c21.207031 0 38.398437-17.191406 38.398437-38.398438 0-21.207031-17.191406-38.398437-38.398437-38.398437-21.207032 0-38.398438 17.191406-38.398438 38.398437.023438 21.195313 17.203125 38.375 38.398438 38.398438zm0-54.296875c8.78125 0 15.898437 7.117187 15.898437 15.898437 0 8.785157-7.117187 15.898438-15.898437 15.898438s-15.898438-7.117188-15.898438-15.898438c.007812-8.773437 7.125-15.890624 15.898438-15.898437zm0 0"/><path d="m266.445312 304.84375c21.207032 0 38.398438-17.191406 38.398438-38.398438 0-21.207031-17.1875-38.398437-38.398438-38.398437-21.207031 0-38.398437 17.191406-38.398437 38.398437.023437 21.195313 17.203125 38.375 38.398437 38.398438zm0-54.296875c8.78125 0 15.898438 7.117187 15.898438 15.898437s-7.117188 15.898438-15.898438 15.898438-15.898437-7.117188-15.898437-15.898438c.007813-8.773437 7.125-15.890624 15.898437-15.898437zm0 0"/></symbol>











<symbol id="tag"  viewBox="0 0 64 64"><title>tag</title><path d="M22.527,46.916L0,35.193v-5.129l22.527-11.771v6.636L6.773,32.707l15.754,7.568V46.916z M39.613,12l-9.559,42h-5.578  l9.559-42H39.613z M57.229,32.707L41.473,24.93v-6.636L64,30.064v5.129L41.473,46.916v-6.641L57.229,32.707z"/></symbol>














<symbol id="comment" viewBox="0 0 60 60"><title>comment</title><path d="M10,25.465h13c0.553,0,1-0.448,1-1s-0.447-1-1-1H10c-0.553,0-1,0.448-1,1S9.447,25.465,10,25.465z"/><path d="M36,29.465H10c-0.553,0-1,0.448-1,1s0.447,1,1,1h26c0.553,0,1-0.448,1-1S36.553,29.465,36,29.465z"/><path d="M36,35.465H10c-0.553,0-10.448-1,1s0.447,1,1,1h26c0.553,0,1-0.448,1-1S36.553,35.465,36,35.465z"/><path d="M54.072,2.535L19.93,2.465c-3.27,0-5.93,2.66-5.93,5.93v5.124l-8.07,0.017c-3.27,0-5.93,2.66-5.93,5.93v21.141 c0,3.27,2.66,5.929,5.93,5.929H12v10c0,0.413,0.254,0.784,0.64,0.933c0.117,0.045,0.239,0.067,0.36,0.067 c0.276,0,0.547-0.115,0.74-0.327l9.704-10.675l16.626-0.068c3.27,0,5.93-2.66,5.93-5.929v-0.113l5.26,5.786 c0.193,0.212,0.464,0.327,0.74,0.327c0.121,0,0.243-0.022,0.36-0.067c0.386-0.149,0.64-0.52,0.64-0.933v-10h1.07 c3.27,0,5.93-2.66,5.93-5.929V8.465C60,5.196,57.341,2.536,54.072,2.535z M44,40.536c0,2.167-1.763,3.929-3.934,3.929l-17.07,0.07 c-0.28,0.001-0.548,0.12-0.736,0.327L14,53.949v-8.414c0-0.552-0.447-1-1-1H5.93c-2.167,0-3.93-1.763-3.93-3.929V19.465 c0-2.167,1.763-3.93,3.932-3.93l9.068-0.019c0,0,0,0,0,0c0.001,0,0.001,0,0.002,0l25.068-0.052c2.167,0,3.93,1.763,3.93,3.93 v18.441V40.536z M58,29.606c0,2.167-1.763,3.929-3.93,3.929H52c-0.553,0-1,0.448-1,1v8.414l-5-5.5V19.395 c0-3.27-2.66-5.93-5.932-5.93L16,13.514v-5.12c0-2.167,1.763-3.93,3.928-3.93l34.141,0.07c0.001,0,0.001,0,0.002,0 c2.167,0,3.93,1.763,3.93,3.93V29.606z"/></symbol>

<symbol id="heart" viewBox="0 0 512 512"><title>heart</title><g> <g> <path d="M472.08,81.12c-26.96-27.572-63.022-42.757-101.546-42.757c-37.93,0-73.593,14.773-100.421,41.602L256.267,93.82 l-13.859-13.859c-26.826-26.826-62.482-41.599-100.401-41.599c-37.931,0-73.593,14.773-100.417,41.599 C14.77,106.78,0,142.439,0,180.37s14.77,73.59,41.59,100.409L219.072,458.26c10.253,10.251,23.717,15.377,37.184,15.377 c13.464-0.001,26.931-5.126,37.181-15.376l176.339-176.323C525.161,226.551,526.195,136.466,472.08,81.12z M451.183,263.346 L274.845,439.671c-10.251,10.25-26.931,10.25-37.181-0.001L60.181,262.186c-21.854-21.853-33.889-50.909-33.889-81.817 s12.035-59.964,33.889-81.818c21.858-21.859,50.918-33.897,81.826-33.897c30.896,0,59.95,12.038,81.809,33.897l13.866,13.866 l-21.233,21.249c-5.132,5.136-5.128,13.459,0.007,18.591c2.567,2.565,5.929,3.847,9.292,3.847c3.367,0,6.732-1.286,9.299-3.854 l53.658-53.7c21.859-21.859,50.918-33.897,81.826-33.897c31.389,0,60.775,12.376,82.747,34.847 C497.374,144.597,496.433,218.097,451.183,263.346z"/> </g> </g><g> <g> <path d="M466.29,174.403c-1.445-23.38-11.35-45.366-27.891-61.909c-11.712-11.712-26.245-20.222-42.026-24.615 c-6.995-1.946-14.242,2.147-16.188,9.142c-1.946,6.994,2.147,14.242,9.142,16.188c11.427,3.179,21.967,9.36,30.482,17.875 c12.004,12.004,19.192,27.963,20.241,44.938c0.431,6.971,6.218,12.336,13.109,12.336c0.272,0,0.547-0.008,0.823-0.026 C461.228,187.887,466.738,181.65,466.29,174.403z"/> </g> </g></symbol>

<symbol id="mood" viewBox="-21 -21 682.66669 682.66669"><title>mood</title><path d="m546.273438 93.726562c-60.4375-60.441406-140.800782-93.726562-226.273438-93.726562s-165.835938 33.285156-226.273438 93.726562c-60.441406 60.4375-93.726562 140.800782-93.726562 226.273438s33.285156 165.835938 93.726562 226.273438c60.4375 60.441406 140.800782 93.726562 226.273438 93.726562s165.835938-33.285156 226.273438-93.726562c60.441406-60.4375 93.726562-140.800782 93.726562-226.273438s-33.285156-165.835938-93.726562-226.273438zm-226.273438 496.273438c-148.875 0-270-121.125-270-270s121.125-270 270-270 270 121.125 270 270-121.125 270-270 270zm-139.804688-248.125c.234376 1.851562 5.929688 45.921875 23.964844 90.609375 33.375 82.664063 81.417969 100.015625 115.839844 100.015625s82.464844-17.351562 115.839844-100.015625c18.035156-44.6875 23.730468-88.757813 23.964844-90.609375l3.539062-28.125h-286.6875zm224.691407 21.875c-3.308594 14.433594-8.371094 32.742188-15.730469 50.804688-18.375 45.085937-41.640625 67.945312-69.15625 67.945312s-50.78125-22.859375-69.15625-67.945312c-7.359375-18.0625-12.421875-36.371094-15.730469-50.804688zm-233.789063-107.125-32.195312-38.25c24.609375-20.71875 50.253906-31.085938 76.324218-30.875 25.445313.230469 50.554688 10.617188 74.621094 30.875l-32.195312 38.25c-30.332032-25.53125-56.214844-25.53125-86.554688 0zm253.625-67.875c25.359375.136719 50.777344 9.878906 75.53125 28.941406l-30.507812 39.613282c-31.796875-24.488282-59.234375-24.613282-88.960938-.421876l-31.570312-38.773437c23.941406-19.484375 49.148437-29.363281 74.949218-29.363281.1875.003906.371094.003906.558594.003906zm0 0"/></symbol>

<symbol id="settings" viewBox="-21 -21 682.66669 682.66669"><title>settings</title><path d="M254.15,234.1V13.5c0-7.5-6-13.5-13.5-13.5s-13.5,6-13.5,13.5v220.6c-31.3,6.3-55,34-55,67.2s23.7,60.9,55,67.2v98.2    c0,7.5,6,13.5,13.5,13.5s13.5-6,13.5-13.5v-98.2c31.3-6.3,55-34,55-67.2C309.15,268.2,285.55,240.4,254.15,234.1z M240.65,342.8    c-22.9,0-41.5-18.6-41.5-41.5s18.6-41.5,41.5-41.5s41.5,18.6,41.5,41.5S263.55,342.8,240.65,342.8z"/>
<path d="M88.85,120.9V13.5c0-7.5-6-13.5-13.5-13.5s-13.5,6-13.5,13.5v107.4c-31.3,6.3-55,34-55,67.2s23.7,60.9,55,67.2v211.4    c0,7.5,6,13.5,13.5,13.5s13.5-6,13.5-13.5V255.2c31.3-6.3,55-34,55-67.2S120.15,127.2,88.85,120.9z M75.35,229.6    c-22.9,0-41.5-18.6-41.5-41.5s18.6-41.5,41.5-41.5s41.5,18.6,41.5,41.5S98.15,229.6,75.35,229.6z"/>
<path d="M418.45,120.9V13.5c0-7.5-6-13.5-13.5-13.5s-13.5,6-13.5,13.5v107.4c-31.3,6.3-55,34-55,67.2s23.7,60.9,55,67.2v211.5    c0,7.5,6,13.5,13.5,13.5s13.5-6,13.5-13.5V255.2c31.3-6.3,55-34,55-67.2S449.85,127.2,418.45,120.9z M404.95,229.6    c-22.9,0-41.5-18.6-41.5-41.5s18.6-41.5,41.5-41.5s41.5,18.6,41.5,41.5S427.85,229.6,404.95,229.6z"/></symbol>

<symbol id="olymp-three-dots-icon" viewBox="0  60 60"><title>olymp-three-dots-icon</title>
<path d="M24,28c-2.2,0-4-1.8-4-4c0-2.2,1.8-4,4-4c2.2,0,4,1.8,4,4C28,26.2,26.2,28,24,28z M24,22c-1.1,0-2,0.9-2,2    c0,1.1,0.9,2,2,2c1.1,0,2-0.9,2-2C26,22.9,25.1,22,24,22z"/>
<path d="M10,28c-2.2,0-4-1.8-4-4c0-2.2,1.8-4,4-4s4,1.8,4,4C14,26.2,12.2,28,10,28z M10,22c-1.1,0-2,0.9-2,2c0,1.1,0.9,2,2,2    s2-0.9,2-2C12,22.9,11.1,22,10,22z"/>
<path d="M38,28c-2.2,0-4-1.8-4-4c0-2.2,1.8-4,4-4s4,1.8,4,4C42,26.2,40.2,28,38,28z M38,22c-1.1,0-2,0.9-2,2c0,1.1,0.9,2,2,2    s2-0.9,2-2C40,22.9,39.1,22,38,22z"/>
</symbol>


<symbol id="olymp-trophy-icon" viewBox="-21 -21 682.66669 682.66669"><title>olymp-trophy-icon</title><path d="M 497 36.953125 L 431.296875 36.953125 C 431.535156 29.675781 431.667969 22.355469 431.667969 15 C 431.667969 6.714844 424.949219 0 416.667969 0 L 95.332031 0 C 87.050781 0 80.332031 6.714844 80.332031 15 C 80.332031 22.355469 80.464844 29.675781 80.703125 36.953125 L 15 36.953125 C 6.714844 36.953125 0 43.667969 0 51.953125 C 0 119.164062 17.566406 182.574219 49.460938 230.507812 C 80.988281 277.894531 122.984375 305.074219 168.351562 307.71875 C 178.636719 318.910156 189.507812 328.035156 200.832031 334.996094 L 200.832031 401.664062 L 175.667969 401.664062 C 145.246094 401.664062 120.5 426.414062 120.5 456.832031 L 120.5 481.996094 L 119.433594 481.996094 C 111.148438 481.996094 104.433594 488.714844 104.433594 496.996094 C 104.433594 505.28125 111.148438 511.996094 119.433594 511.996094 L 392.566406 511.996094 C 400.851562 511.996094 407.566406 505.28125 407.566406 496.996094 C 407.566406 488.714844 400.851562 481.996094 392.566406 481.996094 L 391.5 481.996094 L 391.5 456.832031 C 391.5 426.414062 366.753906 401.664062 336.332031 401.664062 L 311.167969 401.664062 L 311.167969 334.996094 C 322.492188 328.039062 333.367188 318.910156 343.652344 307.71875 C 389.015625 305.074219 431.011719 277.894531 462.542969 230.507812 C 494.4375 182.574219 512 119.164062 512 51.953125 C 512 43.667969 505.285156 36.953125 497 36.953125 Z M 74.4375 213.890625 C 48.128906 174.355469 32.671875 122.644531 30.316406 66.953125 L 82.378906 66.953125 C 87.789062 135.414062 103.859375 198.695312 128.976562 248.925781 C 132.976562 256.925781 137.160156 264.484375 141.5 271.601562 C 116.550781 262.179688 93.460938 242.484375 74.4375 213.890625 Z M 361.5 456.832031 L 361.5 482 L 150.5 482 L 150.5 456.832031 C 150.5 442.957031 161.789062 431.664062 175.667969 431.664062 L 336.332031 431.664062 C 350.210938 431.664062 361.5 442.957031 361.5 456.832031 Z M 281.167969 401.664062 L 230.832031 401.664062 L 230.832031 348.03125 C 239.078125 350.203125 247.480469 351.332031 256 351.332031 C 264.519531 351.332031 272.921875 350.203125 281.167969 348.03125 Z M 290.457031 312.34375 C 289.78125 312.621094 289.132812 312.957031 288.511719 313.328125 C 277.910156 318.601562 267.015625 321.332031 256 321.332031 C 244.988281 321.332031 234.097656 318.601562 223.5 313.335938 C 222.871094 312.957031 222.21875 312.621094 221.535156 312.335938 C 209.773438 306.117188 198.394531 296.726562 187.632812 284.386719 C 187.066406 283.578125 186.429688 282.832031 185.722656 282.152344 C 175.039062 269.46875 164.988281 253.867188 155.808594 235.507812 C 128.242188 180.378906 112.320312 107.890625 110.507812 30 L 401.492188 30 C 399.675781 107.890625 383.753906 180.382812 356.191406 235.507812 C 347.011719 253.867188 336.960938 269.46875 326.28125 282.152344 C 325.570312 282.832031 324.925781 283.582031 324.363281 284.390625 C 313.601562 296.734375 302.21875 306.121094 290.457031 312.34375 Z M 437.5625 213.890625 C 418.539062 242.484375 395.449219 262.179688 370.5 271.601562 C 374.839844 264.484375 379.023438 256.925781 383.023438 248.925781 C 408.140625 198.695312 424.207031 135.414062 429.621094 66.953125 L 481.683594 66.953125 C 479.328125 122.644531 463.871094 174.355469 437.5625 213.890625 Z M 437.5625 213.890625 " style=" fill-rule:nonzero;fill-opacity:1;"/>
</symbol>

<symbol id="olymp-like-post-icon" viewBox="0 0 40 40"><title>olymp-like-post-icon</title>
<path clip-rule="evenodd" d="M29.164,10.472c-1.25-0.328-4.189-0.324-8.488-0.438   c0.203-0.938,0.25-1.784,0.25-3.286C20.926,3.16,18.312,0,16,0c-1.633,0-2.979,1.335-3,2.977c-0.022,2.014-0.645,5.492-4,7.256   c-0.246,0.13-0.95,0.477-1.053,0.522L8,10.8C7.475,10.347,6.747,10,6,10H3c-1.654,0-3,1.346-3,3v16c0,1.654,1.346,3,3,3h3   c1.19,0,2.186-0.719,2.668-1.727c0.012,0.004,0.033,0.01,0.047,0.012c0.066,0.018,0.144,0.037,0.239,0.062   C8.972,30.352,8.981,30.354,9,30.359c0.576,0.143,1.685,0.408,4.055,0.953C13.563,31.428,16.247,32,19.027,32h5.467   c1.666,0,2.867-0.641,3.582-1.928c0.01-0.02,0.24-0.469,0.428-1.076c0.141-0.457,0.193-1.104,0.023-1.76   c1.074-0.738,1.42-1.854,1.645-2.58c0.377-1.191,0.264-2.086,0.002-2.727c0.604-0.57,1.119-1.439,1.336-2.766   c0.135-0.822-0.01-1.668-0.389-2.372c0.566-0.636,0.824-1.436,0.854-2.176l0.012-0.209C31.994,14.275,32,14.194,32,13.906   C32,12.643,31.125,11.032,29.164,10.472z M7,29c0,0.553-0.447,1-1,1H3c-0.553,0-1-0.447-1-1V13c0-0.553,0.447-1,1-1h3   c0.553,0,1,0.447,1,1V29z M29.977,14.535C29.957,15.029,29.75,16,28,16c-1.5,0-2,0-2,0c-0.277,0-0.5,0.224-0.5,0.5S25.723,17,26,17   c0,0,0.438,0,1.938,0s1.697,1.244,1.6,1.844C29.414,19.59,29.064,21,27.375,21C25.688,21,25,21,25,21c-0.277,0-0.5,0.223-0.5,0.5   c0,0.275,0.223,0.5,0.5,0.5c0,0,1.188,0,1.969,0c1.688,0,1.539,1.287,1.297,2.055C27.947,25.064,27.752,26,25.625,26   c-0.719,0-1.631,0-1.631,0c-0.277,0-0.5,0.223-0.5,0.5c0,0.275,0.223,0.5,0.5,0.5c0,0,0.693,0,1.568,0   c1.094,0,1.145,1.035,1.031,1.406c-0.125,0.406-0.273,0.707-0.279,0.721C26.012,29.672,25.525,30,24.494,30h-5.467   c-2.746,0-5.47-0.623-5.54-0.639c-4.154-0.957-4.373-1.031-4.634-1.105c0,0-0.846-0.143-0.846-0.881L8,13.563   c0-0.469,0.299-0.893,0.794-1.042c0.062-0.024,0.146-0.05,0.206-0.075c4.568-1.892,5.959-6.04,6-9.446c0.006-0.479,0.375-1,1-1   c1.057,0,2.926,2.122,2.926,4.748C18.926,9.119,18.83,9.529,18,12c10,0,9.93,0.144,10.812,0.375C29.906,12.688,30,13.594,30,13.906   C30,14.249,29.99,14.199,29.977,14.535z"/><path clip-rule="evenodd" d="M4.5,26C3.672,26,3,26.672,3,27.5S3.672,29,4.5,29   S6,28.328,6,27.5S5.328,26,4.5,26z M4.5,28C4.225,28,4,27.775,4,27.5S4.225,27,4.5,27S5,27.225,5,27.5S4.775,28,4.5,28z" />
</symbol>


<symbol id="olymp-comments-post-icon" viewBox="-21 -21 682.66669 682.66669"><title>olymp-comments-post-icon</title><path d="m255 202c11.046875 0 20 8.953125 20 20s-8.953125 20-20 20-20-8.953125-20-20 8.953125-20 20-20zm70 20c0 11.046875 8.953125 20 20 20s20-8.953125 20-20-8.953125-20-20-20-20 8.953125-20 20zm-180 0c0 11.046875 8.953125 20 20 20s20-8.953125 20-20-8.953125-20-20-20-20 8.953125-20 20zm349.414062 187.5625c23.40625 23.40625 23.40625 61.46875.011719 84.863281-11.695312 11.695313-27.0625 17.546875-42.425781 17.546875s-30.730469-5.851562-42.425781-17.546875l-109.789063-109.542969c-2.332031-2.328124-4.050781-5.191406-5.007812-8.347656l-23.914063-78.722656c-2.121093-6.980469-.273437-14.558594 4.820313-19.78125 5.09375-5.21875 12.625-7.25 19.65625-5.304688l80.722656 22.359376c3.324219.921874 6.351562 2.683593 8.792969 5.121093zm-162.824218-49.453125 74.089844 73.925781 28.289062-28.289062-73.652344-73.511719-40.609375-11.25zm134.550781 77.75-3.859375-3.855469-28.285156 28.285156 3.847656 3.835938c7.8125 7.816406 20.5 7.816406 28.296875.015625 7.800781-7.796875 7.800781-20.484375 0-28.28125zm-199.015625-23.40625c-3.695312.160156-7.4375.242187-11.125.242187-32.160156 0-63.121094-5.988281-92.019531-17.796874-4.921875-2.007813-10.445313-1.976563-15.34375.089843l-91.066407 38.441407 30.683594-72.683594c3-7.105469 1.644532-15.308594-3.488281-21.074219-29.285156-32.898437-44.765625-72.261719-44.765625-113.824219 0-103.578125 96.898438-187.847656 216-187.847656s216 84.269531 216 187.847656c0 24.5625-6.03125 49.222656-17.929688 73.289063-4.894531 9.902343-.835937 21.898437 9.066407 26.792969 9.902343 4.894531 21.898437.835937 26.792969-9.066407 14.644531-29.628906 22.070312-60.25 22.070312-91.015625 0-125.636718-114.839844-227.847656-256-227.847656-141.15625 0-256 102.210938-256 227.847656 0 47.421875 16.078125 92.332032 46.636719 130.632813l-45.0625 106.742187c-3.164063 7.496094-1.46875 16.164063 4.285156 21.917969 3.828125 3.828125 8.941406 5.859375 14.144531 5.859375 2.621094 0 5.265625-.515625 7.773438-1.574219l128.929687-54.425781c31.445313 11.746094 64.808594 17.695312 99.292969 17.695312 4.265625 0 8.597656-.097656 12.875-.28125 11.035156-.484374 19.589844-9.820312 19.105469-20.855468-.480469-11.035156-9.835938-19.617188-20.855469-19.105469zm0 0"/>
</symbol>

<symbol id="olymp-share-icon" viewBox="-21 -21 682.66669 682.66669"><title>olymp-share-icon</title><path d="M381.6,309.4c-27.7,0-52.4,13.2-68.2,33.6l-132.3-73.9c3.1-8.9,4.8-18.5,4.8-28.4c0-10-1.7-19.5-4.9-28.5l132.2-73.8   c15.7,20.5,40.5,33.8,68.3,33.8c47.4,0,86.1-38.6,86.1-86.1S429,0,381.5,0s-86.1,38.6-86.1,86.1c0,10,1.7,19.6,4.9,28.5   l-132.1,73.8c-15.7-20.6-40.5-33.8-68.3-33.8c-47.4,0-86.1,38.6-86.1,86.1s38.7,86.1,86.2,86.1c27.8,0,52.6-13.3,68.4-33.9   l132.2,73.9c-3.2,9-5,18.7-5,28.7c0,47.4,38.6,86.1,86.1,86.1s86.1-38.6,86.1-86.1S429.1,309.4,381.6,309.4z M381.6,27.1 c32.6,0,59.1,26.5,59.1,59.1s-26.5,59.1-59.1,59.1s-59.1-26.5-59.1-59.1S349.1,27.1,381.6,27.1z M100,299.8   c-32.6,0-59.1-26.5-59.1-59.1s26.5-59.1,59.1-59.1s59.1,26.5,59.1,59.1S132.5,299.8,100,299.8z M381.6,454.5   c-32.6,0-59.1-26.5-59.1-59.1c0-32.6,26.5-59.1,59.1-59.1s59.1,26.5,59.1,59.1C440.7,428,414.2,454.5,381.6,454.5z"/>
</symbol>

<symbol id="olymp-speech-balloon-icon" viewBox="-21 -21 682.66669 682.66669"><title>olymp-speech-balloon-icon</title><path d="M470.238,31.479H41.762C18.735,31.479,0,50.214,0,73.242v250.53c0,23.029,18.735,41.764,41.763,41.764h24.415v103.079
c0,4.816,2.902,9.157,7.35,11c1.473,0.61,3.019,0.906,4.553,0.906c3.099,0,6.145-1.21,8.422-3.487L198,365.535h272.236
c23.028,0,41.762-18.735,41.762-41.764V73.242C512,50.214,493.265,31.479,470.238,31.479z M470.238,341.722H193.062
c-3.08,0-5.878,1.18-7.991,3.099c-0.019,0.017-0.041,0.038-0.06,0.055c-0.145,0.133-0.293,0.263-0.431,0.404L89.99,439.869
v-86.241c0-0.414-0.021-0.781-0.063-1.105c-0.558-6.057-5.647-10.801-11.85-10.801H41.762c-9.898,0-17.95-8.053-17.95-17.951
V73.242c0-9.898,8.052-17.95,17.95-17.95h428.475c9.899,0,17.95,8.052,17.95,17.95v250.53h0
C488.187,333.669,480.135,341.722,470.238,341.722z"/>
<path d="M173.987,118.437h-69.399c-6.576,0-11.906,5.332-11.906,11.906c0,6.575,5.33,11.906,11.906,11.906h69.399
c6.576,0,11.906-5.332,11.906-11.906C185.893,123.768,180.562,118.437,173.987,118.437z"/>
<path d="M297.738,186.6H104.587c-6.576,0-11.906,5.332-11.906,11.906c0,6.575,5.33,11.906,11.906,11.906h193.151
c6.575,0,11.906-5.33,11.906-11.906C309.644,191.932,304.313,186.6,297.738,186.6z"/>
<path d="M407.414,118.437H243.507c-6.576,0-11.906,5.332-11.906,11.906c0,6.575,5.33,11.906,11.906,11.906h163.907
c6.575,0,11.906-5.332,11.906-11.906C419.32,123.767,413.989,118.437,407.414,118.437z"/>
<path d="M407.414,186.6h-43.102c-6.575,0-11.906,5.332-11.906,11.906c0,6.576,5.332,11.906,11.906,11.906h43.102
c6.575,0,11.906-5.33,11.906-11.906C419.32,191.93,413.989,186.6,407.414,186.6z"/>
<path d="M212.407,254.765h-107.82c-6.576,0-11.906,5.33-11.906,11.906c0,6.575,5.33,11.906,11.906,11.906h107.82
c6.576,0,11.906-5.332,11.906-11.906C224.313,260.095,218.983,254.765,212.407,254.765z"/>
<path d="M407.414,254.765H275.675c-6.575,0-11.906,5.33-11.906,11.906c0,6.575,5.332,11.906,11.906,11.906h131.739
c6.575,0,11.906-5.332,11.906-11.906C419.32,260.095,413.989,254.765,407.414,254.765z"/>
</symbol>

 <symbol id="olymp-star-icon" viewBox="0 0 32 32"><title>olymp-star-icon</title><path d="M31.881,12.557c-0.277-0.799-0.988-1.384-1.844-1.511l-8.326-1.238l-3.619-7.514  C17.711,1.505,16.896,1,16,1c-0.896,0-1.711,0.505-2.092,1.294l-3.619,7.514l-8.327,1.238c-0.855,0.127-1.566,0.712-1.842,1.511  c-0.275,0.801-0.067,1.683,0.537,2.285l6.102,6.092l-1.415,8.451C5.2,30.236,5.569,31.09,6.292,31.588  C6.689,31.861,7.156,32,7.623,32c0.384,0,0.769-0.094,1.118-0.281L16,27.811l7.26,3.908C23.609,31.906,23.994,32,24.377,32  c0.467,0,0.934-0.139,1.332-0.412c0.723-0.498,1.09-1.352,0.947-2.203l-1.416-8.451l6.104-6.092  C31.947,14.239,32.154,13.357,31.881,12.557z M23.588,19.363c-0.512,0.51-0.744,1.229-0.627,1.934l1.416,8.451l-7.26-3.906  c-0.348-0.188-0.732-0.281-1.118-0.281c-0.384,0-0.769,0.094-1.117,0.281l-7.26,3.906l1.416-8.451  c0.118-0.705-0.114-1.424-0.626-1.934l-6.102-6.092l8.326-1.24c0.761-0.113,1.416-0.589,1.743-1.268L16,3.251l3.62,7.513  c0.328,0.679,0.982,1.154,1.742,1.268l8.328,1.24L23.588,19.363z" fill="#333333" id="star"/>
</symbol>


</svg>